# xmcd
#
# Track frame offsets:
# 150
# 16249
# 35902
# 53837
# 69139
# 82803
# 96449
# 110154
# 125781
# 144284
# 161045
# 176043
#
# Disc length: 2571 seconds
#
#
# Revision: 0
# Processed by: cddbd v1.5.2PL0 Copyright (c) Steve Scherf et al.
# Submitted via: FreeRIP 2.951 
#
DISCID=a40a090c
DTITLE=Leandro and Leonardo - Leandro and Leonardo - 1992
DYEAR=1992
DGENRE=Sertanejo
TTITLE0=Faixa 01 - O Que Eu Sinto É Amor
TTITLE1=Faixa 02 - Um Arraso De Mulher
TTITLE2=Faixa 03 - Fim De Semana Sem Você
TTITLE3=Faixa 04 - Conta Pra Ela
TTITLE4=Faixa 05 - Mais Uma Noite Sem Você
TTITLE5=Faixa 06 - Você É Doida Demais
TTITLE6=Faixa 07 - Não Durmo Sem Ela
TTITLE7=Faixa 08 - Amor Vampiro
TTITLE8=Faixa 09 - Temporal De Amor
TTITLE9=Faixa 10 - Esta Noite Foi Maravilhosa (Wonderful Tonigth)
TTITLE10=Faixa 11 - Vem Fazer Amor Comigo
TTITLE11=Faixa 12 - Chega
EXTD=SAULO
EXTT0=
EXTT1=
EXTT2=
EXTT3=
EXTT4=
EXTT5=
EXTT6=
EXTT7=
EXTT8=
EXTT9=
EXTT10=
EXTT11=
PLAYORDER=
